<svg width="24" height="24" viewBox="0 0 24 24" fill="none" xmlns="http://www.w3.org/2000/svg">
<g clip-path="url(#clip0_0_3)">
<path d="M0.439 21.44C0.157738 21.7214 -0.000220539 22.103 -0.000126765 22.5009C-3.29912e-05 22.8987 0.158106 23.2802 0.4395 23.5615C0.720895 23.8428 1.1025 24.0007 1.50035 24.0006C1.89821 24.0005 2.27974 23.8424 2.561 23.561L11.823 14.3C11.8462 14.2767 11.8738 14.2582 11.9042 14.2456C11.9346 14.233 11.9671 14.2266 12 14.2266C12.0329 14.2266 12.0654 14.233 12.0958 14.2456C12.1262 14.2582 12.1538 14.2767 12.177 14.3L21.439 23.563C21.5783 23.7023 21.7436 23.8129 21.9256 23.8883C22.1076 23.9637 22.3026 24.0026 22.4996 24.0026C22.6966 24.0027 22.8917 23.9639 23.0737 23.8886C23.2558 23.8132 23.4212 23.7028 23.5605 23.5635C23.6998 23.4242 23.8104 23.2589 23.8858 23.0769C23.9612 22.8949 24.0001 22.6999 24.0001 22.5029C24.0002 22.3059 23.9614 22.1108 23.8861 21.9288C23.8107 21.7467 23.7003 21.5813 23.561 21.442L14.3 12.177C14.2767 12.1538 14.2582 12.1262 14.2456 12.0958C14.233 12.0654 14.2266 12.0329 14.2266 12C14.2266 11.9671 14.233 11.9346 14.2456 11.9042C14.2582 11.8738 14.2767 11.8462 14.3 11.823L23.563 2.561C23.8443 2.27934 24.0021 1.89749 24.0018 1.49944C24.0016 1.10139 23.8432 0.719762 23.5615 0.4385C23.2798 0.157238 22.898 -0.000615664 22.4999 -0.000334364C22.1019 -5.30649e-05 21.7203 0.15834 21.439 0.44L12.177 9.7C12.1538 9.72328 12.1262 9.74175 12.0958 9.75436C12.0654 9.76696 12.0329 9.77345 12 9.77345C11.9671 9.77345 11.9346 9.76696 11.9042 9.75436C11.8738 9.74175 11.8462 9.72328 11.823 9.7L2.561 0.44C2.42173 0.300667 2.25639 0.19013 2.0744 0.114698C1.89241 0.039267 1.69735 0.000419144 1.50035 0.000372715C1.1025 0.000278947 0.720895 0.158238 0.4395 0.4395C0.158106 0.720762 -3.30288e-05 1.10229 -0.000126797 1.50015C-0.000220565 1.898 0.157738 2.27961 0.439 2.561L9.7 11.823C9.72328 11.8462 9.74175 11.8738 9.75436 11.9042C9.76696 11.9346 9.77345 11.9671 9.77345 12C9.77345 12.0329 9.76696 12.0654 9.75436 12.0958C9.74175 12.1262 9.72328 12.1538 9.7 12.177L0.439 21.44Z" fill="white"/>
</g>
<defs>
<clipPath id="clip0_0_3">
<rect width="24" height="24" fill="white"/>
</clipPath>
</defs>
</svg>
